<svg xmlns="http://www.w3.org/2000/svg" xmlns:xlink="http://www.w3.org/1999/xlink" width="171.04" height="38.756" viewBox="0 0 171.04 38.756">
  <defs>
    <linearGradient id="linear-gradient" x1="0.107" y1="0.111" x2="0.817" y2="0.814" gradientUnits="objectBoundingBox">
      <stop offset="0" stop-color="#006aa5" stop-opacity="0"/>
      <stop offset="0.118" stop-color="#0069a5" stop-opacity="0.043"/>
      <stop offset="0.291" stop-color="#0068a5" stop-opacity="0.161"/>
      <stop offset="0.498" stop-color="#0065a5" stop-opacity="0.357"/>
      <stop offset="0.731" stop-color="#0062a5" stop-opacity="0.631"/>
      <stop offset="0.983" stop-color="#005ea5" stop-opacity="0.976"/>
      <stop offset="1" stop-color="#005ea5"/>
    </linearGradient>
    <linearGradient id="linear-gradient-2" x1="0.759" y1="0.796" x2="0.119" y2="0.102" gradientUnits="objectBoundingBox">
      <stop offset="0" stop-color="#63c8d0"/>
      <stop offset="0.143" stop-color="#63c8d0" stop-opacity="0.839"/>
      <stop offset="0.564" stop-color="#63c8d0" stop-opacity="0.392"/>
      <stop offset="0.859" stop-color="#63c8d0" stop-opacity="0.11"/>
      <stop offset="1" stop-color="#63c8d0" stop-opacity="0"/>
    </linearGradient>
    <linearGradient id="linear-gradient-3" x1="0.189" y1="0.274" x2="0.686" y2="0.636" gradientUnits="objectBoundingBox">
      <stop offset="0" stop-color="#d8b407" stop-opacity="0"/>
      <stop offset="0.107" stop-color="#d8b407" stop-opacity="0.027"/>
      <stop offset="0.244" stop-color="#d8b407" stop-opacity="0.098"/>
      <stop offset="0.398" stop-color="#d8b407" stop-opacity="0.224"/>
      <stop offset="0.565" stop-color="#d8b407" stop-opacity="0.392"/>
      <stop offset="0.74" stop-color="#d8b407" stop-opacity="0.612"/>
      <stop offset="0.922" stop-color="#d8b407" stop-opacity="0.875"/>
      <stop offset="1" stop-color="#d8b407"/>
    </linearGradient>
    <linearGradient id="linear-gradient-4" x1="0.17" y1="0.055" x2="0.779" y2="0.876" gradientUnits="objectBoundingBox">
      <stop offset="0" stop-color="#6fbf66" stop-opacity="0"/>
      <stop offset="0.152" stop-color="#6fbf66" stop-opacity="0.118"/>
      <stop offset="0.47" stop-color="#6fbf66" stop-opacity="0.427"/>
      <stop offset="0.924" stop-color="#6fbf66" stop-opacity="0.914"/>
      <stop offset="1" stop-color="#6fbf66"/>
    </linearGradient>
    <linearGradient id="linear-gradient-5" x1="0.617" y1="0.65" x2="-0.26" y2="-0.318" gradientUnits="objectBoundingBox">
      <stop offset="0" stop-color="#fff"/>
      <stop offset="0.094" stop-color="#fff" stop-opacity="0.941"/>
      <stop offset="0.275" stop-color="#fff" stop-opacity="0.788"/>
      <stop offset="0.523" stop-color="#fff" stop-opacity="0.541"/>
      <stop offset="0.827" stop-color="#fff" stop-opacity="0.204"/>
      <stop offset="1" stop-color="#fff" stop-opacity="0"/>
    </linearGradient>
    <linearGradient id="linear-gradient-6" x1="0.623" y1="0.632" x2="-0.039" y2="-0.076" xlink:href="#linear-gradient-5"/>
  </defs>
  <g id="Group_668" data-name="Group 668" transform="translate(-33.506 -51.43)">
    <g id="Group_662" data-name="Group 662" transform="translate(78.916 51.668)">
      <path id="Path_626" data-name="Path 626" d="M101.971,67.083V51.98h3.707v15.1Z" transform="translate(-101.971 -51.853)" fill="#fff"/>
      <path id="Path_627" data-name="Path 627" d="M118.108,68.89V62.052a1.47,1.47,0,0,0-.445-1.221,1.472,1.472,0,0,0-1.906,0,1.47,1.47,0,0,0-.445,1.221V68.89h-3.474V57.473h3.389v.933a3.506,3.506,0,0,1,1.208-.773,3.881,3.881,0,0,1,1.44-.286,4,4,0,0,1,1.441.244,3.527,3.527,0,0,1,1.218.828,3.211,3.211,0,0,1,.815,1.358,6.325,6.325,0,0,1,.233,1.814v7.3Z" transform="translate(-105.294 -53.66)" fill="#fff"/>
      <path id="Path_628" data-name="Path 628" d="M136.184,67.083V66.13a3.672,3.672,0,0,1-1.144.795,3.737,3.737,0,0,1-1.482.265,3.488,3.488,0,0,1-2.574-.843,3.677,3.677,0,0,1-1.048-1.864,12.211,12.211,0,0,1-.212-2.454V61.4a21.274,21.274,0,0,1,.159-2.94,3.449,3.449,0,0,1,1.048-1.969,4.178,4.178,0,0,1,5.148,0V51.98h3.473v15.1Zm-1.546-8.409a1.132,1.132,0,0,0-1.177.635,8.126,8.126,0,0,0,0,4.109,1.405,1.405,0,0,0,2.351,0,8.068,8.068,0,0,0,0-4.109A1.129,1.129,0,0,0,134.638,58.674Z" transform="translate(-111.316 -51.853)" fill="#fff"/>
      <path id="Path_629" data-name="Path 629" d="M148.5,54.437V51.789h3.473v2.648Zm0,12.582V56.068h3.473V67.019Z" transform="translate(-117.64 -51.789)" fill="#fff"/>
      <path id="Path_630" data-name="Path 630" d="M162.852,68.89v-.932a3.718,3.718,0,0,1-1.1.778,3.662,3.662,0,0,1-1.44.239,3.386,3.386,0,0,1-2.457-.741,3.8,3.8,0,0,1-1.271-2.945,3.158,3.158,0,0,1,.974-2.351,3.99,3.99,0,0,1,2.9-.953h2.309v-.3a1.35,1.35,0,0,0-.392-1.091,2.077,2.077,0,0,0-1.324-.328,2.6,2.6,0,0,0-1.017.159,2.834,2.834,0,0,0-.8.6l-2.161-2.161a4.916,4.916,0,0,1,1.78-1.186,7.026,7.026,0,0,1,2.372-.339q5.019,0,5.02,4.138V68.89Zm-.085-4.6h-1.758a1.2,1.2,0,0,0-.8.254.824.824,0,0,0-.3.657.887.887,0,0,0,.3.678,1.2,1.2,0,0,0,.847.275,3.251,3.251,0,0,0,.826-.074,1.319,1.319,0,0,0,.889-1.494Z" transform="translate(-120.361 -53.66)" fill="#fff"/>
      <path id="Path_631" data-name="Path 631" d="M185.805,67.125a10.8,10.8,0,0,1-3.251-.434,5.973,5.973,0,0,1-2.468-1.557l2.373-2.372a3.248,3.248,0,0,0,1.451.805,7.028,7.028,0,0,0,1.916.254q2.161,0,2.161-1.356a1.159,1.159,0,0,0-.222-.805,1.519,1.519,0,0,0-.456-.339,2.082,2.082,0,0,0-.614-.148l-1.821-.254a5.187,5.187,0,0,1-3.04-1.345,4.137,4.137,0,0,1-1.027-3.019,4.407,4.407,0,0,1,1.483-3.431,5.791,5.791,0,0,1,4.025-1.334,9.038,9.038,0,0,1,2.891.413,5.646,5.646,0,0,1,2.192,1.388l-2.33,2.33a2.92,2.92,0,0,0-1.039-.657,4.4,4.4,0,0,0-1.546-.233h-.275a1.976,1.976,0,0,0-1.366.413,1.287,1.287,0,0,0-.455.985.911.911,0,0,0,.074.392,1.137,1.137,0,0,0,.233.318,1.476,1.476,0,0,0,.391.275,1.9,1.9,0,0,0,.636.159l1.821.254a4.924,4.924,0,0,1,2.775,1.048,4.03,4.03,0,0,1,1.049,1.589,6.228,6.228,0,0,1,.265,1.917,4.135,4.135,0,0,1-1.663,3.474A6.654,6.654,0,0,1,185.805,67.125Z" transform="translate(-128.276 -51.789)" fill="#fff"/>
      <path id="Path_632" data-name="Path 632" d="M205.2,69a5.544,5.544,0,0,1-3.57-1.25q-1.557-1.25-1.557-4.576,0-3.3,1.568-4.565a5.528,5.528,0,0,1,3.559-1.26,5.641,5.641,0,0,1,2.1.371,4.862,4.862,0,0,1,1.653,1.091L206.6,61.159a2.9,2.9,0,0,0-.657-.509,1.585,1.585,0,0,0-1.886.35,3.242,3.242,0,0,0-.509,2.171,5.788,5.788,0,0,0,.137,1.388,2.015,2.015,0,0,0,.509.921,1.338,1.338,0,0,0,1.006.381,1.987,1.987,0,0,0,1.4-.678l2.351,2.351a4.874,4.874,0,0,1-1.642,1.091A5.617,5.617,0,0,1,205.2,69Z" transform="translate(-135.008 -53.66)" fill="#fff"/>
      <path id="Path_633" data-name="Path 633" d="M216.016,54.437V51.789h3.473v2.648Zm0,12.582V56.068h3.473V67.019Z" transform="translate(-140.375 -51.789)" fill="#fff"/>
      <path id="Path_634" data-name="Path 634" d="M227.856,64.294a1.68,1.68,0,0,0,.54,1.26,2.036,2.036,0,0,0,1.473.519,3.379,3.379,0,0,0,1.355-.212,3.538,3.538,0,0,0,1-.741L234.3,67.2a6.4,6.4,0,0,1-1.917,1.366,6.256,6.256,0,0,1-2.509.434,5.994,5.994,0,0,1-3.887-1.239q-1.536-1.24-1.536-4.586a6.119,6.119,0,0,1,1.409-4.279,5.281,5.281,0,0,1,7.456-.011,5.6,5.6,0,0,1,1.366,3.866v1.546Zm3.2-3.2a1.518,1.518,0,0,0-.54-.657,2.066,2.066,0,0,0-1.928.011,1.5,1.5,0,0,0-.551.635,2.144,2.144,0,0,0-.18.9h3.389a2.635,2.635,0,0,0-.032-.477A1.723,1.723,0,0,0,231.055,61.1Z" transform="translate(-143.214 -53.66)" fill="#fff"/>
      <path id="Path_635" data-name="Path 635" d="M249.335,68.89V62.052a1.47,1.47,0,0,0-.445-1.221,1.471,1.471,0,0,0-1.906,0,1.468,1.468,0,0,0-.446,1.221V68.89h-3.474V57.473h3.39v.933a3.5,3.5,0,0,1,1.207-.773,3.879,3.879,0,0,1,1.441-.286,4,4,0,0,1,1.441.244,3.531,3.531,0,0,1,1.218.828,3.2,3.2,0,0,1,.815,1.358,6.323,6.323,0,0,1,.233,1.814v7.3Z" transform="translate(-149.484 -53.66)" fill="#fff"/>
      <path id="Path_636" data-name="Path 636" d="M265.916,69a5.542,5.542,0,0,1-3.569-1.25q-1.558-1.25-1.557-4.576,0-3.3,1.568-4.565a5.523,5.523,0,0,1,3.558-1.26,5.645,5.645,0,0,1,2.1.371,4.866,4.866,0,0,1,1.652,1.091l-2.351,2.351a2.868,2.868,0,0,0-.657-.509,1.584,1.584,0,0,0-1.885.35,3.237,3.237,0,0,0-.509,2.171,5.782,5.782,0,0,0,.138,1.388,2.008,2.008,0,0,0,.509.921,1.34,1.34,0,0,0,1.006.381,1.987,1.987,0,0,0,1.4-.678l2.351,2.351a4.878,4.878,0,0,1-1.642,1.091A5.623,5.623,0,0,1,265.916,69Z" transform="translate(-155.453 -53.66)" fill="#fff"/>
      <path id="Path_637" data-name="Path 637" d="M279.37,64.294a1.68,1.68,0,0,0,.54,1.26,2.036,2.036,0,0,0,1.473.519,3.382,3.382,0,0,0,1.355-.212,3.556,3.556,0,0,0,1-.741l2.075,2.076a6.388,6.388,0,0,1-1.917,1.366,6.256,6.256,0,0,1-2.509.434,6,6,0,0,1-3.888-1.239q-1.536-1.24-1.535-4.586a6.119,6.119,0,0,1,1.409-4.279,5.281,5.281,0,0,1,7.456-.011,5.6,5.6,0,0,1,1.366,3.866v1.546Zm3.2-3.2a1.519,1.519,0,0,0-.541-.657,2.064,2.064,0,0,0-1.927.011,1.5,1.5,0,0,0-.551.635,2.134,2.134,0,0,0-.18.9h3.389a2.7,2.7,0,0,0-.032-.477A1.722,1.722,0,0,0,282.569,61.1Z" transform="translate(-160.561 -53.66)" fill="#fff"/>
      <path id="Path_638" data-name="Path 638" d="M105.678,89.587v2.648h5.591v3.3h-5.591v5.846h-3.707v-15.1h10.252v3.3Z" transform="translate(-101.971 -63.405)" fill="#fff"/>
      <path id="Path_639" data-name="Path 639" d="M123.328,98.6a1.682,1.682,0,0,0,.541,1.26,2.034,2.034,0,0,0,1.472.519,3.4,3.4,0,0,0,1.356-.212,3.546,3.546,0,0,0,1-.742l2.075,2.076a6.385,6.385,0,0,1-1.917,1.366,6.25,6.25,0,0,1-2.51.434,5.993,5.993,0,0,1-3.887-1.239q-1.537-1.24-1.536-4.586a6.117,6.117,0,0,1,1.409-4.279,5.28,5.28,0,0,1,7.456-.011,5.6,5.6,0,0,1,1.366,3.865V98.6Zm3.2-3.2a1.516,1.516,0,0,0-.541-.657,2.069,2.069,0,0,0-1.927.011,1.5,1.5,0,0,0-.55.635,2.127,2.127,0,0,0-.18.9h3.389a2.709,2.709,0,0,0-.031-.477A1.748,1.748,0,0,0,126.527,95.4Z" transform="translate(-108.015 -65.212)" fill="#fff"/>
      <path id="Path_640" data-name="Path 640" d="M141.834,103.3a11.315,11.315,0,0,1-2.764-.286,4.888,4.888,0,0,1-2.193-1.366l2.245-2.245a3.066,3.066,0,0,0,1.123.72,4.872,4.872,0,0,0,1.652.233,3,3,0,0,0,1-.17c.324-.113.487-.3.487-.572a.693.693,0,0,0-.18-.477.97.97,0,0,0-.647-.243l-1.758-.17a4.1,4.1,0,0,1-2.435-.932,3.033,3.033,0,0,1-.869-2.372,3.245,3.245,0,0,1,1.356-2.774,5.218,5.218,0,0,1,3.177-1,9.951,9.951,0,0,1,2.605.3,4.2,4.2,0,0,1,1.885,1.1l-2.139,2.14a2.07,2.07,0,0,0-1.006-.53,6.166,6.166,0,0,0-1.409-.148,1.394,1.394,0,0,0-.837.212.576.576,0,0,0-.285.444,1.281,1.281,0,0,0,.063.36q.064.212.678.275l1.758.17a3.849,3.849,0,0,1,2.574,1.112,3.378,3.378,0,0,1,.858,2.362,3.284,3.284,0,0,1-1.4,2.881A6.049,6.049,0,0,1,141.834,103.3Z" transform="translate(-113.725 -65.212)" fill="#fff"/>
      <path id="Path_641" data-name="Path 641" d="M158.028,101.827a3.346,3.346,0,0,1-2.648-1.009,3.469,3.469,0,0,1-.889-2.368V93.524h-1.039V90.855h1.039V87.593h3.473v3.262h1.8v2.669h-1.8V98.2a.619.619,0,0,0,.7.7h1.1v2.923Z" transform="translate(-119.307 -63.846)" fill="#fff"/>
      <path id="Path_642" data-name="Path 642" d="M166.227,88.74V86.092H169.7V88.74Zm0,12.582V90.371H169.7v10.951Z" transform="translate(-123.609 -63.34)" fill="#fff"/>
      <path id="Path_643" data-name="Path 643" d="M180.286,103.257h-2.648L173.444,91.84h3.643l1.885,5.91,1.864-5.91h3.644Z" transform="translate(-126.039 -65.276)" fill="#fff"/>
      <path id="Path_644" data-name="Path 644" d="M197.215,103.193v-.932a3.7,3.7,0,0,1-1.1.778,3.661,3.661,0,0,1-1.441.239,3.386,3.386,0,0,1-2.457-.742,3.813,3.813,0,0,1-1.271-2.944,3.159,3.159,0,0,1,.975-2.351,3.992,3.992,0,0,1,2.9-.953h2.308v-.3a1.352,1.352,0,0,0-.391-1.091,2.079,2.079,0,0,0-1.324-.328,2.607,2.607,0,0,0-1.017.159,2.853,2.853,0,0,0-.805.6l-2.16-2.16a4.909,4.909,0,0,1,1.78-1.187,7.048,7.048,0,0,1,2.372-.338q5.021,0,5.021,4.138v7.406Zm-.085-4.6h-1.758a1.2,1.2,0,0,0-.805.254.824.824,0,0,0-.3.657.886.886,0,0,0,.3.678,1.2,1.2,0,0,0,.848.275,3.278,3.278,0,0,0,.826-.074,1.318,1.318,0,0,0,.889-1.494Z" transform="translate(-131.933 -65.212)" fill="#fff"/>
      <path id="Path_645" data-name="Path 645" d="M212.559,101.386a3.347,3.347,0,0,1-2.648-1.007,3.462,3.462,0,0,1-.89-2.365V86.283H212.5v11.48a.618.618,0,0,0,.7.7H214.4v2.923Z" transform="translate(-138.02 -63.405)" fill="#fff"/>
    </g>
    <path id="Path_646" data-name="Path 646" d="M71.435,52.689H35.843a1.165,1.165,0,0,0-1.165,1.165V89.445a1.165,1.165,0,0,0,1.165,1.165H71.435A1.165,1.165,0,0,0,72.6,89.445V53.854A1.165,1.165,0,0,0,71.435,52.689Zm-.355,36.553H34.671V52.834H71.079Z" transform="translate(-0.392 -0.424)" fill="#000202"/>
    <path id="Path_647" data-name="Path 647" d="M33.506,52.6V88.186a1.165,1.165,0,0,0,1.165,1.165H70.262a1.165,1.165,0,0,0,1.165-1.165V52.6a1.165,1.165,0,0,0-1.165-1.165H34.671A1.165,1.165,0,0,0,33.506,52.6ZM53.691,87.848l-18.178-9.1a1.279,1.279,0,0,1-.692-1.334l3.041-20.1a1.278,1.278,0,0,1,1.055-1.07l20.057-3.32a1.278,1.278,0,0,1,1.344.673l9.356,18.049a1.279,1.279,0,0,1-.225,1.486L55.174,87.6A1.279,1.279,0,0,1,53.691,87.848Z" transform="translate(0 0)" fill="#0298cc"/>
    <path id="Path_648" data-name="Path 648" d="M33.506,52.6V88.186a1.165,1.165,0,0,0,1.165,1.165H70.262a1.165,1.165,0,0,0,1.165-1.165V52.6a1.165,1.165,0,0,0-1.165-1.165H34.671A1.165,1.165,0,0,0,33.506,52.6ZM53.691,87.848l-18.178-9.1a1.279,1.279,0,0,1-.692-1.334l3.041-20.1a1.278,1.278,0,0,1,1.055-1.07l20.057-3.32a1.278,1.278,0,0,1,1.344.673l9.356,18.049a1.279,1.279,0,0,1-.225,1.486L55.174,87.6A1.279,1.279,0,0,1,53.691,87.848Z" transform="translate(0 0)" fill="url(#linear-gradient)"/>
    <path id="Path_649" data-name="Path 649" d="M57.344,60.411,42.391,62.886a1.475,1.475,0,0,0-1.217,1.234L38.907,79.107a1.475,1.475,0,0,0,.8,1.539l13.553,6.787a1.474,1.474,0,0,0,1.71-.283L65.611,76.359a1.475,1.475,0,0,0,.259-1.715L58.894,61.188A1.474,1.474,0,0,0,57.344,60.411ZM47.079,82.774l-5.931-7.458a1.63,1.63,0,0,1-.241-1.612L44.4,64.837a1.63,1.63,0,0,1,1.276-1.015L55.1,62.414a1.632,1.632,0,0,1,1.518.6L62.55,70.47a1.631,1.631,0,0,1,.241,1.613L59.3,80.949a1.631,1.631,0,0,1-1.277,1.015L48.6,83.372A1.631,1.631,0,0,1,47.079,82.774Z" transform="translate(-1.813 -3.018)" fill="#63c8d0"/>
    <path id="Path_650" data-name="Path 650" d="M57.344,60.411,42.391,62.886a1.475,1.475,0,0,0-1.217,1.234L38.907,79.107a1.475,1.475,0,0,0,.8,1.539l13.553,6.787a1.474,1.474,0,0,0,1.71-.283L65.611,76.359a1.475,1.475,0,0,0,.259-1.715L58.894,61.188A1.474,1.474,0,0,0,57.344,60.411ZM47.079,82.774l-5.931-7.458a1.63,1.63,0,0,1-.241-1.612L44.4,64.837a1.63,1.63,0,0,1,1.276-1.015L55.1,62.414a1.632,1.632,0,0,1,1.518.6L62.55,70.47a1.631,1.631,0,0,1,.241,1.613L59.3,80.949a1.631,1.631,0,0,1-1.277,1.015L48.6,83.372A1.631,1.631,0,0,1,47.079,82.774Z" transform="translate(-1.813 -3.018)" opacity="0.76" fill="url(#linear-gradient-2)"/>
    <g id="Group_664" data-name="Group 664" transform="translate(48.895 68.941)">
      <g id="Group_663" data-name="Group 663" transform="translate(0 0)">
        <path id="Path_651" data-name="Path 651" d="M60.31,77.832a3.6,3.6,0,1,0,3.6,3.6A3.605,3.605,0,0,0,60.31,77.832Z" transform="translate(-56.709 -77.832)" fill="#d8b407"/>
      </g>
    </g>
    <g id="Group_666" data-name="Group 666" transform="translate(48.895 68.941)" opacity="0.51">
      <g id="Group_665" data-name="Group 665" transform="translate(0 0)">
        <path id="Path_652" data-name="Path 652" d="M60.31,77.832a3.6,3.6,0,1,0,3.6,3.6A3.605,3.605,0,0,0,60.31,77.832Z" transform="translate(-56.709 -77.832)" fill="url(#linear-gradient-3)"/>
      </g>
    </g>
    <path id="Path_653" data-name="Path 653" d="M63.029,73.34,59.82,69.379a3.359,3.359,0,0,0-3.135-1.2l-5.034.8a3.357,3.357,0,0,0-2.609,2.113l-1.825,4.76a3.356,3.356,0,0,0,.526,3.316l3.209,3.96a3.357,3.357,0,0,0,3.134,1.2l5.035-.8a3.356,3.356,0,0,0,2.608-2.113l1.826-4.76A3.359,3.359,0,0,0,63.029,73.34ZM61.346,77.6A6.077,6.077,0,1,1,54.2,70.45,6.064,6.064,0,0,1,61.346,77.6Z" transform="translate(-4.542 -5.626)" fill="#6fbf66"/>
    <path id="Path_654" data-name="Path 654" d="M63.029,73.34,59.82,69.379a3.359,3.359,0,0,0-3.135-1.2l-5.034.8a3.357,3.357,0,0,0-2.609,2.113l-1.825,4.76a3.356,3.356,0,0,0,.526,3.316l3.209,3.96a3.357,3.357,0,0,0,3.134,1.2l5.035-.8a3.356,3.356,0,0,0,2.608-2.113l1.826-4.76A3.359,3.359,0,0,0,63.029,73.34ZM61.346,77.6A6.077,6.077,0,1,1,54.2,70.45,6.064,6.064,0,0,1,61.346,77.6Z" transform="translate(-4.542 -5.626)" opacity="0.62" fill="url(#linear-gradient-4)"/>
    <g id="Group_667" data-name="Group 667" transform="translate(33.506 51.43)" opacity="0.13">
      <path id="Path_655" data-name="Path 655" d="M57.345,60.411,42.391,62.886a1.475,1.475,0,0,0-1.217,1.234L38.907,79.107a1.474,1.474,0,0,0,.8,1.539l4.446,2.227q1.126-.463,2.213-1l-5.215-6.557a1.631,1.631,0,0,1-.241-1.613L44.4,64.837a1.631,1.631,0,0,1,1.276-1.015L55.1,62.414a1.632,1.632,0,0,1,1.518.6l4.341,5.458q.469-.773.9-1.573l-2.96-5.71A1.474,1.474,0,0,0,57.345,60.411Z" transform="translate(-35.319 -54.448)" fill="url(#linear-gradient-5)"/>
      <path id="Path_656" data-name="Path 656" d="M33.506,52.6v29.6a35.108,35.108,0,0,0,6.168-1.364l-4.161-2.083a1.28,1.28,0,0,1-.692-1.335l3.041-20.1a1.278,1.278,0,0,1,1.055-1.07l20.057-3.32a1.279,1.279,0,0,1,1.344.673l2.244,4.33a35.065,35.065,0,0,0,1.4-6.492H34.671A1.166,1.166,0,0,0,33.506,52.6Z" transform="translate(-33.506 -51.43)" fill="url(#linear-gradient-6)"/>
    </g>
  </g>
</svg>
